<svg xmlns="http://www.w3.org/2000/svg" width="1600" height="1580" viewBox="0 0 1600 1580" role="img" aria-labelledby="title desc">
<title id="title">GridSFM model DAG</title>
<desc id="desc">Shape-aware directed acyclic graph of the GridSFM model.</desc>
<defs>
          <marker id="arrow" viewBox="0 0 10 10" refX="9" refY="5"
                  markerWidth="7" markerHeight="7" orient="auto-start-reverse">
            <path d="M 0 0 L 10 5 L 0 10 z" fill="#718096"/>
          </marker>
          <style>
            .title { font: 700 28px ui-sans-serif, system-ui, sans-serif; fill: #eaf0ff; }
            .subtitle { font: 14px ui-monospace, SFMono-Regular, monospace; fill: #9fb0d0; }
            .box-title { font: 700 16px ui-sans-serif, system-ui, sans-serif; fill: #f7f9ff; }
            .box-text { font: 13px ui-monospace, SFMono-Regular, monospace; fill: #cbd5e1; }
            .edge-label { font: 12px ui-sans-serif, system-ui, sans-serif; fill: #9fb0d0; }
            .edge { stroke: #718096; stroke-width: 2; fill: none; marker-end: url(#arrow); }
            .context { stroke: #8467d7; stroke-width: 2; stroke-dasharray: 7 5;
                       fill: none; marker-end: url(#arrow); }
          </style>
        </defs>
<rect width="1600" height="1580" fill="#091225"/>
<text x="50" y="48" class="title">GridSFM model DAG</text>
<text x="50" y="75" class="subtitle">15,148,227 parameters · 8 blocks · hidden=128 · sample shapes from 500 buses</text>
<rect x="30" y="105" width="205" height="105" rx="12" fill="#252052" stroke="#8467d7" stroke-width="2"/>
<text x="44" y="132" class="box-title">bus</text>
<text x="44" y="156" class="box-text">x [500, 16]</text>
<text x="44" y="175" class="box-text">Hodge PE +8</text>
<text x="44" y="194" class="box-text">encode -&gt; [500,128]</text>
<rect x="252" y="105" width="205" height="105" rx="12" fill="#172a4c" stroke="#52678f" stroke-width="2"/>
<text x="266" y="132" class="box-title">generator</text>
<text x="266" y="156" class="box-text">x [171, 11]</text>
<text x="266" y="175" class="box-text">no Hodge PE</text>
<text x="266" y="194" class="box-text">encode -&gt; [171,128]</text>
<rect x="474" y="105" width="205" height="105" rx="12" fill="#172a4c" stroke="#52678f" stroke-width="2"/>
<text x="488" y="132" class="box-title">load</text>
<text x="488" y="156" class="box-text">x [281, 2]</text>
<text x="488" y="175" class="box-text">no Hodge PE</text>
<text x="488" y="194" class="box-text">encode -&gt; [281,128]</text>
<rect x="696" y="105" width="205" height="105" rx="12" fill="#172a4c" stroke="#52678f" stroke-width="2"/>
<text x="710" y="132" class="box-title">shunt</text>
<text x="710" y="156" class="box-text">x [31, 2]</text>
<text x="710" y="175" class="box-text">no Hodge PE</text>
<text x="710" y="194" class="box-text">encode -&gt; [31,128]</text>
<rect x="918" y="105" width="205" height="105" rx="12" fill="#252052" stroke="#8467d7" stroke-width="2"/>
<text x="932" y="132" class="box-title">branch_ac</text>
<text x="932" y="156" class="box-text">x [536, 13]</text>
<text x="932" y="175" class="box-text">Hodge PE +8</text>
<text x="932" y="194" class="box-text">encode -&gt; [536,128]</text>
<rect x="1140" y="105" width="205" height="105" rx="12" fill="#252052" stroke="#8467d7" stroke-width="2"/>
<text x="1154" y="132" class="box-title">branch_tr</text>
<text x="1154" y="156" class="box-text">x [192, 15]</text>
<text x="1154" y="175" class="box-text">Hodge PE +8</text>
<text x="1154" y="194" class="box-text">encode -&gt; [192,128]</text>
<rect x="1362" y="105" width="205" height="105" rx="12" fill="#252052" stroke="#8467d7" stroke-width="2"/>
<text x="1376" y="132" class="box-title">cycle</text>
<text x="1376" y="156" class="box-text">x [229, 4]</text>
<text x="1376" y="175" class="box-text">Hodge PE +8</text>
<text x="1376" y="194" class="box-text">encode -&gt; [229,128]</text>
<rect x="255" y="285" width="1090" height="140" rx="12" fill="#132f43" stroke="#2d8f9f" stroke-width="2"/>
<text x="269" y="312" class="box-title">GridBlock × 8</text>
<text x="269" y="336" class="box-text">pre-LN -&gt; 4-head linear self-attention -&gt; residual</text>
<text x="269" y="355" class="box-text">pre-LN -&gt; 14-relation heterogeneous GNN -&gt; sum -&gt; residual</text>
<text x="269" y="374" class="box-text">pre-LN -&gt; FFN 128 -&gt; 512 -&gt; 128 -&gt; residual</text>
<text x="269" y="393" class="box-text">all seven streams retain [N_type,128]</text>
<path d="M 132 210 V 247 H 800 V 285" class="edge"/>
<path d="M 354 210 V 247 H 800 V 285" class="edge"/>
<path d="M 576 210 V 247 H 800 V 285" class="edge"/>
<path d="M 798 210 V 247 H 800 V 285" class="edge"/>
<path d="M 1020 210 V 247 H 800 V 285" class="edge"/>
<path d="M 1242 210 V 247 H 800 V 285" class="edge"/>
<path d="M 1464 210 V 247 H 800 V 285" class="edge"/>
<rect x="350" y="500" width="900" height="125" rx="12" fill="#2b214d" stroke="#8467d7" stroke-width="2"/>
<text x="364" y="527" class="box-title">FusionLayer</text>
<text x="364" y="551" class="box-text">bus &lt;- self + AC + transformer + generator + load + shunt + cycle</text>
<text x="364" y="570" class="box-text">generator &lt;- self + fused bus</text>
<text x="364" y="589" class="box-text">global &lt;- mean/max pools of bus/AC/transformer/cycle: 1024 -&gt; 128</text>
<path d="M 800 425 V 462 H 800 V 500" class="edge"/>
<rect x="70" y="700" width="400" height="95" rx="12" fill="#162443" stroke="#52678f" stroke-width="2"/>
<text x="84" y="727" class="box-title">Fused bus embedding</text>
<text x="84" y="751" class="box-text">[N_bus,128]</text>
<rect x="600" y="700" width="400" height="95" rx="12" fill="#162443" stroke="#52678f" stroke-width="2"/>
<text x="614" y="727" class="box-title">Fused generator embedding</text>
<text x="614" y="751" class="box-text">[N_gen,128]</text>
<rect x="1130" y="700" width="400" height="95" rx="12" fill="#162443" stroke="#52678f" stroke-width="2"/>
<text x="1144" y="727" class="box-title">Global grid embedding</text>
<text x="1144" y="751" class="box-text">[N_graph,128]</text>
<path d="M 600 625 V 662 H 270 V 700" class="edge"/>
<path d="M 800 625 V 662 H 800 V 700" class="edge"/>
<path d="M 1000 625 V 662 H 1330 V 700" class="edge"/>
<rect x="35" y="885" width="270" height="90" rx="12" fill="#162443" stroke="#52678f" stroke-width="2"/>
<text x="49" y="912" class="box-title">Pg head</text>
<text x="49" y="936" class="box-text">264 -&gt; 64 -&gt; 1</text>
<text x="49" y="955" class="box-text">apply physical limits / anchor</text>
<rect x="350" y="885" width="270" height="90" rx="12" fill="#162443" stroke="#52678f" stroke-width="2"/>
<text x="364" y="912" class="box-title">Qg head</text>
<text x="364" y="936" class="box-text">264 -&gt; 64 -&gt; 1</text>
<text x="364" y="955" class="box-text">apply physical limits / anchor</text>
<rect x="665" y="885" width="270" height="90" rx="12" fill="#162443" stroke="#52678f" stroke-width="2"/>
<text x="679" y="912" class="box-title">theta head + DC prior</text>
<text x="679" y="936" class="box-text">264 -&gt; 64 -&gt; 1</text>
<text x="679" y="955" class="box-text">apply physical limits / anchor</text>
<rect x="980" y="885" width="270" height="90" rx="12" fill="#162443" stroke="#52678f" stroke-width="2"/>
<text x="994" y="912" class="box-title">V head + setpoint</text>
<text x="994" y="936" class="box-text">265 -&gt; 64 -&gt; 1</text>
<text x="994" y="955" class="box-text">apply physical limits / anchor</text>
<path d="M 800 795 V 840 H 170 V 885" class="edge"/>
<path d="M 800 795 V 840 H 485 V 885" class="edge"/>
<path d="M 270 795 V 840 H 800 V 885" class="edge"/>
<path d="M 270 795 V 840 H 1115 V 885" class="edge"/>
<path d="M 1330 795 V 840 H 170 V 885" class="context"/>
<text x="756" y="834" class="edge-label">global + ctx[8]</text>
<path d="M 1330 795 V 840 H 485 V 885" class="context"/>
<text x="913" y="834" class="edge-label">global + ctx[8]</text>
<path d="M 1330 795 V 840 H 800 V 885" class="context"/>
<text x="1071" y="834" class="edge-label">global + ctx[8]</text>
<path d="M 1330 795 V 840 H 1115 V 885" class="context"/>
<text x="1228" y="834" class="edge-label">global + ctx[8]</text>
<path d="M 170 975 V 1000 H 800 V 975" class="context"/>
<text x="380" y="994" class="edge-label">Pg drives the DC angle prior</text>
<rect x="120" y="1060" width="480" height="90" rx="12" fill="#162443" stroke="#52678f" stroke-width="2"/>
<text x="134" y="1087" class="box-title">generator.pred</text>
<text x="134" y="1111" class="box-text">[N_gen,2] = [Pg,Qg]</text>
<rect x="690" y="1060" width="480" height="90" rx="12" fill="#162443" stroke="#52678f" stroke-width="2"/>
<text x="704" y="1087" class="box-title">bus.pred</text>
<text x="704" y="1111" class="box-text">[N_bus,2] = [theta,V]</text>
<path d="M 170 975 V 1017 H 300 V 1060" class="edge"/>
<path d="M 485 975 V 1017 H 420 V 1060" class="edge"/>
<path d="M 800 975 V 1017 H 840 V 1060" class="edge"/>
<path d="M 1115 975 V 1017 H 1020 V 1060" class="edge"/>
<rect x="690" y="1220" width="480" height="90" rx="12" fill="#153348" stroke="#2d8f9f" stroke-width="2"/>
<text x="704" y="1247" class="box-title">Differentiable π-model</text>
<text x="704" y="1271" class="box-text">(V, theta, edge attributes)</text>
<text x="704" y="1290" class="box-text">-&gt; [N_branch,4] = Pij,Qij,Pji,Qji</text>
<path d="M 930 1150 V 1185 H 930 V 1220" class="edge"/>
<rect x="120" y="1370" width="520" height="95" rx="12" fill="#3b2732" stroke="#b46c82" stroke-width="2"/>
<text x="134" y="1397" class="box-title">Physics stress</text>
<text x="134" y="1421" class="box-text">bus + generator predictions + branch flows</text>
<text x="134" y="1440" class="box-text">-&gt; [N_graph,24]</text>
<path d="M 360 1150 V 1260 H 360 V 1370" class="edge"/>
<path d="M 930 1310 V 1340 H 550 V 1370" class="edge"/>
<path d="M 930 1150 V 1260 H 620 V 1370" class="edge"/>
<rect x="870" y="1370" width="600" height="95" rx="12" fill="#3c2d1b" stroke="#b98a3d" stroke-width="2"/>
<text x="884" y="1397" class="box-title">Feasibility head</text>
<text x="884" y="1421" class="box-text">global 128 + context 8 + stress 24</text>
<text x="884" y="1440" class="box-text">160 -&gt; 64 -&gt; 1 feas_logit</text>
<path d="M 640 1417 V 1417 H 870 V 1417" class="edge"/>
<path d="M 1330 795 V 1082 H 1320 V 1370" class="context"/>
<text x="1331" y="1076" class="edge-label">global + context</text>
<text x="50" y="1535" class="subtitle">Solid arrows: tensor dependencies · dashed purple arrows: broadcast global/context dependencies</text>
</svg>
